<svg id="Layer_1_1_" enable-background="new 0 0 64 64" height="512" viewBox="0 0 64 64" width="512" xmlns="http://www.w3.org/2000/svg"><path d="m55.555 18.962c-.215-1.083-1.267-1.788-2.351-1.573l-2.122.421v24.19c0 1.105-.895 2-2 2h-37.498l1.943 9.8c.215 1.083 1.267 1.788 2.351 1.573l43.16-8.557c1.083-.215 1.788-1.267 1.573-2.351z" fill="#47a2de"/><path d="m52 46c1.105 0 2-.895 2-2v-26c0-.218-.044-.423-.108-.619-.223-.034-.454-.038-.688.008l-2.122.421v24.19c0 1.105-.895 2-2 2h-37.498l.397 2z" fill="#3982b3"/><path d="m49.082 14h-44c-1.105 0-2 .895-2 2v26c0 1.105.895 2 2 2h44c1.105 0 2-.895 2-2v-26c0-1.105-.895-2-2-2z" fill="#47a2de"/><path d="m27 18c-6.075 0-11 4.925-11 11s4.925 11 11 11 11-4.925 11-11-4.925-11-11-11z" fill="#ffecc7"/><path d="m27.134 20h-.138l-3.138 6h-5.255l4.2 4.2-2.1 5.6 6.3-2.8h.124l6.3 2.8-2.1-5.6 4.2-4.2h-5.254z" fill="#f74f2e"/><g fill="#ffecc7"><path d="m48 32h-2v-13h-4v-2h4c1.103 0 2 .897 2 2z"/><path d="m46 34h2v3h-2z"/></g></svg>