<svg id="icons" enable-background="new 0 0 64 64" height="512" viewBox="0 0 64 64" width="512" xmlns="http://www.w3.org/2000/svg"><path d="m63 48.504c0 1.1-.9 2-2 2h-58c-1.1 0-2-.9-2-2v-4c0 1.1.9 2 2 2h12 46c1.1 0 2-.9 2-2z" fill="#ed5565"/><path d="m1 44.504v4c0 1.1.9 2 2 2h12v-4h-12c-1.1 0-2-.9-2-2z" fill="#ffce54"/><path d="m63 46.502c0 1.1-.9 2-2 2h-58c-1.1 0-2-.9-2-2v-4c0 1.1.9 2 2 2h12 46c1.1 0 2-.9 2-2z" fill="#da4453"/><path d="m1 42.502v4c0 1.1.9 2 2 2h12v-4h-12c-1.1 0-2-.9-2-2z" fill="#f6bb42"/><path d="m63 44.5c0 1.1-.9 2-2 2h-58c-1.1 0-2-.9-2-2v-4c0 1.1.9 2 2 2h12 46c1.1 0 2-.9 2-2z" fill="#ed5565"/><path d="m1 40.5v4c0 1.1.9 2 2 2h12v-4h-12c-1.1 0-2-.9-2-2z" fill="#ffce54"/><path d="m63 42.498c0 1.1-.9 2-2 2h-58c-1.1 0-2-.9-2-2v-4c0 1.1.9 2 2 2h12 46c1.1 0 2-.9 2-2z" fill="#da4453"/><path d="m1 38.498v4c0 1.1.9 2 2 2h12v-4h-12c-1.1 0-2-.9-2-2z" fill="#f6bb42"/><path d="m63 40.496c0 1.1-.9 2-2 2h-58c-1.1 0-2-.9-2-2v-4c0 1.1.9 2 2 2h12 46c1.1 0 2-.9 2-2z" fill="#ed5565"/><path d="m1 36.496v4c0 1.1.9 2 2 2h12v-4h-12c-1.1 0-2-.9-2-2z" fill="#ffce54"/><path d="m63 38.494c0 1.1-.9 2-2 2h-58c-1.1 0-2-.9-2-2v-4c0 1.1.9 2 2 2h12 46c1.1 0 2-.9 2-2z" fill="#da4453"/><path d="m1 34.494v4c0 1.1.9 2 2 2h12v-4h-12c-1.1 0-2-.9-2-2z" fill="#f6bb42"/><path d="m15 35.496v3h-12c-1.1 0-2-.9-2-2v-8-4-4-5c0-1.1.9-2 2-2h12v3 4 3 5 3z" fill="#ffce54"/><g fill="#ed5565"><circle cx="32.5" cy="29.996" r="2.5"/><circle cx="24.5" cy="21.996" r="2.5"/><path d="m49.99 25.496v-2c0-2.21-1.79-4-4-4s-4 1.79-4 4v2zm13.01 3v8c0 1.1-.9 2-2 2h-46v-3-4-3-5-3-4-3h46c1.1 0 2 .9 2 2v5 4zm-28 1.5c0-1.38-1.12-2.5-2.5-2.5s-2.5 1.12-2.5 2.5 1.12 2.5 2.5 2.5 2.5-1.12 2.5-2.5zm-8-8c0-1.38-1.12-2.5-2.5-2.5s-2.5 1.12-2.5 2.5 1.12 2.5 2.5 2.5 2.5-1.12 2.5-2.5z"/><path d="m15 21.495c-.553 0-1-.447-1-1v-4.002c0-.553.447-1 1-1s1 .447 1 1v4.002c0 .553-.447 1-1 1z"/><path d="m15 29.498c-.553 0-1-.447-1-1v-5.003c0-.553.447-1 1-1s1 .447 1 1v5.003c0 .553-.447 1-1 1z"/><path d="m15 36.5c-.553 0-1-.447-1-1v-4.002c0-.553.447-1 1-1s1 .447 1 1v4.002c0 .553-.447 1-1 1z"/></g><path d="m6 34.497c-.553 0-1-.447-1-1v-15.002c0-.553.447-1 1-1s1 .447 1 1v15.002c0 .553-.447 1-1 1z" fill="#f6bb42"/><path d="m9 34.497c-.553 0-1-.447-1-1v-15.002c0-.553.447-1 1-1s1 .447 1 1v15.002c0 .553-.447 1-1 1z" fill="#f6bb42"/><path d="m24.499 25.495c-1.93 0-3.5-1.57-3.5-3.5s1.57-3.5 3.5-3.5 3.5 1.57 3.5 3.5-1.57 3.5-3.5 3.5zm0-5c-.827 0-1.5.673-1.5 1.5s.673 1.5 1.5 1.5 1.5-.673 1.5-1.5-.673-1.5-1.5-1.5z" fill="#da4453"/><path d="m32.501 33.497c-1.93 0-3.5-1.57-3.5-3.5s1.57-3.5 3.5-3.5 3.5 1.57 3.5 3.5-1.57 3.5-3.5 3.5zm0-5c-.827 0-1.5.673-1.5 1.5s.673 1.5 1.5 1.5 1.5-.673 1.5-1.5-.673-1.5-1.5-1.5z" fill="#da4453"/><path d="m22 33.496c-.256 0-.512-.098-.707-.293-.391-.391-.391-1.023 0-1.414l13.001-13.001c.391-.391 1.023-.391 1.414 0s.391 1.023 0 1.414l-13.001 13.001c-.195.195-.451.293-.707.293z" fill="#da4453"/><path d="m57 30.497h-14.999c-.553 0-1-.447-1-1s.447-1 1-1h14.999c.553 0 1 .447 1 1s-.447 1-1 1z" fill="#da4453"/><path d="m50.001 33.497h-8c-.553 0-1-.447-1-1s.447-1 1-1h8c.553 0 1 .447 1 1s-.447 1-1 1z" fill="#da4453"/><path d="m45.992 21.498c-.553 0-1-.447-1-1v-1.001c0-.553.447-1 1-1s1 .447 1 1v1.001c0 .553-.447 1-1 1z" fill="#aab2bd"/><path d="m49.99 23.496v2h-8v-2c0-2.21 1.79-4 4-4s4 1.79 4 4z" fill="#ccd1d9"/><path d="m45.99 19.496c-.348 0-.68.059-1.001.142 1.722.446 2.999 1.996 2.999 3.858v2h2.002v-2c0-2.21-1.79-4-4-4z" fill="#aab2bd"/><path d="m49.991 26.497h-7.998c-.553 0-1-.447-1-1s.447-1 1-1h7.998c.553 0 1 .447 1 1s-.447 1-1 1z" fill="#e6e9ed"/></svg>