<!DOCTYPE svg PUBLIC "-//W3C//DTD SVG 20010904//EN" "http://www.w3.org/TR/2001/REC-SVG-20010904/DTD/svg10.dtd">
<svg version="1.0" xmlns="http://www.w3.org/2000/svg" width="500px" height="500px" viewBox="0 0 5000 5000" preserveAspectRatio="xMidYMid meet">
<g id="layer101" fill="#010101" stroke="none">
 <path d="M0 2500 l0 -2500 2500 0 2500 0 0 2500 0 2500 -2500 0 -2500 0 0 -2500z"/>
 </g>
<g id="layer102" fill="#303030" stroke="none">
 <path d="M0 2500 l0 -2500 2500 0 2500 0 0 2500 0 2500 -2500 0 -2500 0 0 -2500z m2814 2436 c49 -9 95 -15 103 -12 7 3 15 0 19 -5 3 -6 17 -8 29 -5 13 3 27 1 30 -4 4 -6 12 -10 18 -9 30 6 282 -75 487 -155 91 -35 341 -186 462 -278 43 -32 80 -58 83 -58 4 0 18 -13 32 -30 13 -16 28 -30 31 -30 11 0 232 -220 232 -230 0 -5 10 -17 23 -27 12 -10 27 -26 32 -34 30 -48 88 -119 96 -119 5 0 9 -6 9 -13 0 -8 13 -32 28 -53 88 -122 203 -350 268 -526 50 -137 126 -425 125 -475 0 -18 4 -35 9 -38 5 -3 6 -20 3 -39 -3 -19 -1 -36 6 -40 7 -5 8 -28 5 -65 -5 -39 -3 -61 5 -65 15 -9 15 -262 0 -271 -5 -4 -10 -32 -9 -63 0 -53 -2 -79 -16 -172 -2 -19 -7 -48 -9 -65 -2 -16 -18 -81 -34 -144 -16 -63 -29 -117 -29 -120 1 -3 -2 -15 -7 -26 -42 -110 -55 -144 -55 -150 0 -3 -20 -52 -44 -108 -62 -142 -146 -294 -230 -415 -39 -57 -75 -111 -81 -120 -5 -9 -18 -23 -27 -30 -10 -7 -18 -18 -18 -23 0 -6 -13 -22 -30 -36 -16 -13 -30 -28 -30 -32 0 -11 -198 -211 -208 -211 -6 0 -22 -13 -35 -30 -14 -16 -30 -30 -36 -30 -6 0 -16 -9 -23 -20 -7 -11 -18 -20 -25 -20 -7 0 -18 -9 -25 -20 -7 -11 -17 -20 -22 -20 -5 0 -60 -34 -123 -76 -64 -42 -134 -86 -157 -98 -22 -12 -50 -27 -61 -33 -118 -65 -409 -171 -560 -204 -27 -6 -57 -13 -65 -16 -8 -3 -21 -5 -29 -4 -7 1 -20 -1 -30 -4 -9 -4 -40 -9 -69 -11 -30 -3 -84 -11 -121 -17 -87 -17 -499 -12 -528 6 -6 4 -38 8 -71 11 -33 2 -66 7 -72 11 -6 4 -17 4 -25 1 -8 -3 -17 -1 -21 5 -3 5 -13 9 -22 8 -10 -1 -24 0 -32 3 -8 4 -76 23 -150 44 -74 20 -139 40 -145 44 -5 4 -53 23 -105 44 -117 45 -298 141 -416 221 -97 65 -264 197 -303 239 -14 14 -31 26 -38 26 -8 0 -17 8 -20 18 -6 15 -47 61 -165 185 -21 22 -38 42 -38 46 0 3 -13 22 -28 41 -56 69 -172 247 -209 320 -12 25 -26 52 -31 60 -50 87 -134 310 -177 465 -15 55 -29 107 -32 115 -4 8 -5 22 -4 32 1 9 -3 19 -8 22 -6 4 -8 13 -4 21 3 8 2 23 -2 32 -5 10 -7 28 -6 40 1 11 -2 24 -7 27 -6 3 -8 15 -5 26 3 11 2 28 -2 37 -11 29 -15 95 -15 303 0 206 3 274 15 303 4 9 5 26 2 37 -3 11 -1 23 5 26 5 3 8 18 7 32 -2 15 0 33 5 40 4 7 5 19 2 27 -3 8 -1 17 4 20 5 3 9 16 9 28 -1 12 13 69 30 127 18 58 33 114 35 125 2 11 8 31 14 45 5 14 29 70 52 125 23 55 48 118 56 139 8 22 24 52 35 67 10 15 27 45 37 66 9 21 53 91 97 156 44 65 85 126 90 135 6 9 16 21 22 25 7 4 13 11 13 16 0 4 29 38 66 77 36 38 69 79 74 92 5 12 16 22 25 22 9 0 20 11 25 25 5 14 18 29 27 32 10 4 54 39 99 79 195 173 434 320 674 416 41 16 79 34 84 39 6 5 17 9 25 9 9 0 66 16 126 36 61 20 118 36 127 36 10 0 20 3 23 8 3 5 12 7 20 3 9 -3 21 0 29 6 7 6 15 8 18 5 6 -5 129 12 158 23 8 3 34 6 58 8 24 1 45 5 48 8 13 12 434 -1 518 -17z"/>
 <path d="M2419 4686 c-3 -3 -39 -8 -80 -11 -41 -2 -94 -7 -119 -10 -25 -3 -55 -6 -67 -6 -12 1 -25 -4 -28 -9 -3 -5 -12 -7 -19 -4 -26 10 -271 -59 -410 -116 -222 -90 -481 -248 -613 -376 -26 -24 -49 -44 -53 -44 -10 0 -110 -105 -110 -116 0 -5 -19 -26 -43 -45 -23 -20 -49 -49 -57 -65 -8 -16 -22 -35 -31 -41 -31 -23 -172 -247 -230 -363 -90 -180 -185 -462 -194 -575 -2 -22 -4 -42 -6 -45 -2 -5 -4 -20 -16 -110 -9 -69 -8 -446 0 -520 10 -76 14 -104 16 -110 1 -3 4 -25 6 -50 2 -25 11 -65 20 -90 9 -25 18 -59 21 -77 10 -76 130 -375 183 -458 14 -22 31 -52 38 -68 20 -46 145 -228 165 -240 10 -7 18 -17 18 -24 0 -7 9 -18 20 -25 11 -7 20 -18 20 -24 0 -7 22 -31 50 -54 27 -23 50 -48 50 -56 0 -8 5 -14 12 -14 6 0 47 -36 89 -80 43 -44 84 -80 91 -80 7 0 18 -8 24 -18 18 -28 209 -155 328 -217 107 -56 319 -144 360 -150 11 -1 28 -5 36 -8 51 -20 162 -49 200 -52 25 -2 47 -5 50 -6 5 -2 26 -5 110 -16 70 -9 426 -8 505 1 33 3 72 7 87 7 15 0 30 4 33 9 3 5 11 7 19 4 15 -6 46 1 206 45 63 18 124 38 135 45 11 7 34 16 50 20 53 13 227 97 330 159 111 67 245 165 245 178 0 5 7 9 15 9 8 0 20 9 27 20 7 11 17 20 22 20 14 0 206 192 206 207 0 7 4 13 10 13 16 0 123 142 222 295 37 57 128 236 128 252 0 8 7 24 15 37 30 45 107 281 119 366 3 19 13 64 21 99 9 36 14 73 12 83 -3 10 -1 21 4 24 5 3 9 24 8 47 0 54 0 420 0 474 1 23 -3 44 -9 48 -5 3 -7 12 -4 19 6 17 -35 226 -47 242 -5 6 -6 13 -3 16 5 6 -65 227 -90 281 -59 128 -123 253 -160 312 -55 87 -100 152 -115 165 -9 8 -23 28 -31 43 -21 41 -272 295 -360 364 -192 152 -413 272 -630 346 -124 42 -218 69 -247 72 -15 1 -36 6 -45 10 -9 4 -21 4 -27 1 -5 -4 -12 -2 -16 4 -3 6 -18 10 -33 10 -15 -1 -45 1 -67 5 -107 15 -357 30 -366 21z m150 -410 c6 -4 29 -6 51 -5 21 2 42 0 46 -4 4 -4 25 -7 46 -7 22 0 58 -4 81 -9 23 -5 69 -15 102 -21 33 -7 110 -26 170 -42 61 -16 120 -31 133 -32 12 -1 28 -8 34 -14 7 -7 18 -12 25 -12 7 0 21 -4 31 -9 9 -5 56 -27 105 -50 48 -22 121 -63 162 -91 l75 -51 0 -754 0 -755 -470 0 c-441 0 -470 1 -471 18 -3 81 4 338 9 347 5 6 87 10 235 10 215 0 229 1 243 19 11 16 14 90 14 418 l0 398 -67 56 c-67 55 -228 143 -240 130 -4 -3 -13 0 -22 8 -19 16 -68 27 -131 30 -25 1 -51 5 -58 10 -7 4 -28 6 -47 5 -19 -2 -37 0 -41 4 -12 11 -82 8 -90 -4 -4 -7 -21 -9 -46 -5 -22 4 -44 3 -51 -1 -6 -4 -28 -6 -49 -4 -21 1 -52 -2 -70 -8 -18 -5 -53 -15 -78 -21 -91 -24 -243 -97 -318 -152 -54 -40 -188 -168 -223 -214 -73 -95 -151 -237 -179 -324 -7 -25 -18 -50 -22 -57 -5 -6 -8 -17 -7 -25 1 -7 -2 -24 -8 -38 -33 -77 -56 -212 -55 -327 0 -57 -4 -105 -9 -109 -13 -8 -11 -161 2 -170 7 -4 9 -22 6 -49 -9 -61 10 -215 42 -340 6 -22 13 -53 17 -70 4 -16 12 -36 18 -44 6 -7 11 -19 11 -25 5 -69 120 -287 208 -393 59 -72 127 -139 182 -179 33 -25 67 -51 75 -58 28 -22 184 -94 250 -114 123 -39 145 -43 217 -46 40 -1 76 -5 79 -9 12 -12 136 -7 224 9 47 8 100 18 118 21 18 3 35 9 38 14 3 5 14 9 25 9 10 0 27 4 37 9 9 5 58 29 107 52 50 24 92 46 93 51 2 4 8 8 13 8 6 0 37 18 69 40 32 22 61 40 64 40 2 0 11 -12 19 -27 8 -16 24 -46 35 -68 12 -22 38 -74 58 -115 20 -41 45 -92 56 -114 l20 -39 -25 -23 c-31 -28 -143 -101 -212 -137 -59 -31 -250 -97 -282 -97 -12 0 -34 -5 -50 -11 -15 -6 -48 -11 -73 -10 -25 1 -58 -5 -74 -14 -36 -19 -295 -22 -314 -3 -6 6 -45 12 -86 14 -41 1 -79 5 -85 8 -6 4 -35 12 -64 17 -100 19 -132 27 -196 47 -36 12 -68 19 -72 16 -4 -2 -10 0 -13 5 -4 5 -49 30 -100 54 -182 87 -345 209 -470 353 -80 91 -186 236 -186 254 0 5 -7 10 -16 10 -8 0 -13 4 -10 8 3 5 -12 44 -33 88 -49 101 -94 219 -122 314 -12 41 -24 79 -27 85 -4 5 -5 23 -3 38 1 15 -4 38 -12 51 -8 12 -13 34 -10 48 3 15 -1 44 -8 65 -27 81 -26 622 0 688 7 17 10 45 7 64 -3 21 1 42 10 57 9 12 15 36 13 51 -1 15 3 39 8 53 6 14 16 45 23 70 38 143 118 337 172 417 15 23 28 45 28 48 0 15 80 119 179 234 68 80 287 251 320 251 6 0 11 6 11 14 0 9 7 12 20 9 11 -3 20 0 20 6 0 6 9 11 20 11 11 0 20 5 20 10 0 6 7 10 15 10 8 0 23 4 33 9 30 17 125 48 197 65 136 32 151 35 243 42 51 4 94 10 96 13 6 8 201 5 215 -3z"/>
 </g>
<g id="layer103" fill="#d3d3d3" stroke="none">
 <path d="M0 2500 l0 -2500 2500 0 2500 0 0 2500 0 2500 -2500 0 -2500 0 0 -2500z m2810 2447 c14 -3 49 -8 79 -12 82 -9 344 -78 456 -120 233 -85 505 -240 701 -399 113 -91 272 -252 365 -368 271 -340 440 -718 515 -1153 24 -141 28 -186 28 -380 1 -197 -4 -288 -18 -365 -3 -14 -14 -79 -26 -145 -52 -294 -188 -624 -373 -900 -187 -279 -474 -556 -747 -721 -238 -143 -500 -253 -720 -300 -41 -9 -102 -22 -135 -30 -181 -41 -620 -43 -834 -4 -345 63 -654 183 -926 361 -528 344 -910 881 -1055 1484 -59 246 -64 289 -64 590 -1 297 2 323 55 560 129 570 448 1066 915 1421 344 263 778 438 1199 484 79 9 537 6 585 -3z"/>
 <path d="M2285 4669 c-49 -5 -133 -19 -185 -30 -52 -12 -114 -25 -138 -30 -152 -30 -465 -170 -642 -286 -183 -121 -397 -317 -522 -479 -327 -426 -501 -992 -460 -1497 6 -78 14 -155 17 -172 51 -270 102 -437 189 -620 298 -627 851 -1063 1527 -1206 196 -41 398 -55 576 -40 76 6 154 14 173 17 697 117 1277 530 1593 1134 177 339 248 623 252 1010 2 170 -1 230 -20 355 -123 807 -678 1472 -1455 1740 -52 18 -126 40 -165 48 -38 8 -102 22 -142 31 -149 32 -411 43 -598 25z m398 -389 c160 -24 216 -34 312 -57 126 -30 271 -77 353 -114 34 -16 65 -29 67 -29 13 0 176 -103 203 -128 l32 -30 0 -749 c0 -569 -3 -752 -12 -761 -15 -15 -933 -17 -943 -2 -3 5 -6 96 -7 202 l0 193 238 5 c132 3 240 7 242 8 1 1 1 185 0 409 l-3 407 -60 49 c-115 93 -267 151 -445 169 -529 53 -955 -202 -1157 -692 -34 -80 -72 -218 -94 -340 -19 -101 -19 -539 -1 -630 35 -167 45 -209 74 -294 66 -195 163 -353 302 -491 144 -143 295 -226 501 -275 84 -21 126 -25 260 -25 252 0 410 49 645 199 65 42 88 52 96 43 18 -19 184 -353 184 -370 0 -22 -119 -109 -220 -161 -196 -101 -400 -146 -674 -146 -150 0 -196 4 -356 31 -381 65 -701 253 -943 556 -302 378 -426 853 -382 1473 8 115 37 288 64 390 6 19 14 51 19 70 47 175 170 415 286 557 253 312 527 467 941 531 84 13 392 14 478 2z"/>
 </g>
<g id="layer104" fill="#ffffff" stroke="none">
 <path d="M0 2500 l0 -2500 1246 0 c916 0 1243 3 1238 11 -5 8 -34 9 -95 4 -49 -3 -94 -3 -101 1 -13 8 -59 13 -125 14 -18 0 -35 4 -38 10 -3 5 -12 7 -20 3 -8 -3 -23 -2 -32 2 -10 4 -36 9 -58 11 -53 4 -286 73 -402 118 -199 76 -520 260 -622 355 -18 17 -37 31 -41 31 -15 0 -324 313 -370 375 -25 33 -48 62 -51 65 -16 14 -133 197 -179 280 -89 161 -196 416 -205 490 -1 8 -7 26 -12 40 -20 47 -55 201 -49 215 3 8 0 17 -5 21 -6 3 -9 17 -6 30 2 14 0 27 -4 30 -5 3 -9 19 -9 37 0 61 -6 123 -14 136 -5 7 -5 44 -2 81 5 44 3 70 -3 75 -12 7 -15 88 -4 99 5 4 8 45 9 89 1 45 4 105 8 132 3 28 6 64 6 82 0 17 4 34 10 38 6 4 8 15 5 24 -11 36 50 275 116 456 82 224 269 559 375 671 19 20 34 41 34 45 0 5 34 43 75 84 41 41 75 79 75 85 0 5 6 10 14 10 8 0 33 22 56 50 104 124 412 337 637 441 168 77 423 165 506 173 18 2 40 7 49 11 9 4 21 4 27 1 5 -4 12 -2 16 4 3 6 18 10 33 10 46 1 88 6 100 14 7 4 25 6 40 5 15 -1 35 2 45 6 10 4 40 5 67 1 29 -4 51 -2 55 4 7 11 207 14 218 3 4 -4 49 -7 101 -8 51 -1 99 -6 106 -10 8 -5 25 -9 39 -11 14 -1 42 -5 61 -8 19 -4 45 -6 57 -6 12 0 25 -5 28 -10 3 -5 11 -7 18 -4 17 6 256 -64 373 -109 168 -65 367 -172 528 -285 47 -32 90 -66 171 -132 16 -13 86 -81 155 -150 126 -125 249 -281 350 -439 68 -108 178 -336 224 -468 40 -112 108 -366 105 -392 -1 -9 1 -24 6 -34 4 -9 5 -24 2 -32 -4 -8 -1 -17 4 -21 6 -4 8 -20 5 -39 -4 -19 -2 -36 3 -40 6 -3 11 -31 12 -63 4 -145 2 -383 -5 -442 -3 -36 -7 -82 -7 -102 0 -20 -3 -40 -8 -43 -5 -3 -7 -14 -4 -25 3 -11 0 -26 -6 -33 -6 -8 -8 -17 -5 -20 7 -7 -15 -107 -27 -123 -5 -6 -7 -13 -4 -16 7 -7 -31 -149 -66 -248 -59 -163 -145 -343 -236 -488 -56 -91 -143 -214 -163 -232 -3 -3 -18 -22 -34 -44 -48 -64 -217 -236 -233 -236 -7 0 -17 -8 -20 -18 -9 -21 -43 -51 -60 -52 -7 0 -13 -4 -13 -9 0 -10 -100 -91 -169 -137 -184 -123 -358 -214 -532 -279 -135 -50 -384 -119 -405 -111 -7 3 -16 1 -19 -5 -4 -5 -18 -9 -33 -9 -15 0 -45 -3 -67 -6 -22 -3 -58 -7 -80 -8 -22 -2 -48 -7 -58 -11 -10 -4 -47 -5 -82 -1 -40 4 -66 3 -70 -4 -4 -7 388 -10 1219 -10 l1226 0 0 2500 0 2500 -2500 0 -2500 0 0 -2500z"/>
 <path d="M2425 4670 c-5 -7 -31 -11 -69 -9 -33 1 -69 -1 -79 -6 -9 -4 -26 -5 -37 -2 -11 3 -23 1 -26 -5 -3 -5 -18 -8 -32 -7 -15 1 -35 -2 -44 -6 -10 -4 -25 -5 -33 -2 -8 4 -17 2 -21 -4 -3 -5 -13 -9 -22 -8 -10 1 -24 0 -32 -3 -8 -3 -64 -20 -125 -38 -265 -77 -543 -219 -726 -371 -26 -22 -51 -39 -55 -39 -5 0 -15 -9 -22 -20 -7 -11 -19 -20 -27 -20 -8 0 -15 -7 -15 -15 0 -8 -5 -15 -10 -15 -26 0 -236 -245 -331 -385 -128 -187 -234 -420 -294 -640 -15 -55 -30 -104 -33 -109 -6 -11 -12 -49 -12 -83 0 -12 -5 -25 -10 -28 -6 -3 -7 -17 -4 -31 3 -13 3 -32 -1 -41 -4 -10 -7 -30 -6 -45 1 -15 -1 -32 -4 -38 -9 -15 -8 -390 1 -413 3 -10 4 -31 1 -47 -4 -16 -2 -32 4 -36 6 -3 9 -18 8 -32 -1 -15 1 -34 5 -43 4 -10 6 -23 5 -30 -2 -15 -1 -20 44 -184 69 -252 199 -526 337 -708 22 -29 40 -54 40 -57 0 -4 27 -35 61 -70 33 -36 65 -76 70 -88 5 -13 17 -26 27 -29 10 -2 22 -14 27 -26 6 -11 22 -28 37 -36 14 -9 55 -41 90 -72 199 -178 511 -348 768 -420 41 -12 86 -26 100 -32 14 -5 41 -11 60 -14 19 -2 42 -6 50 -10 8 -3 22 -5 32 -4 9 1 19 -3 23 -8 3 -6 19 -8 34 -5 16 3 32 1 35 -5 4 -6 20 -8 36 -4 16 3 37 2 47 -2 23 -9 382 -9 406 1 10 3 31 4 47 1 16 -4 32 -2 36 4 3 6 18 9 32 8 15 -1 35 2 45 6 9 4 24 5 32 2 8 -4 17 -2 21 4 3 5 13 9 22 8 10 -1 24 1 32 4 8 3 65 20 125 37 205 57 433 163 591 272 42 29 86 60 98 68 97 66 296 257 392 375 34 41 167 230 196 278 27 43 139 294 158 352 13 39 30 86 38 105 9 19 15 40 14 46 -1 7 3 25 9 40 7 16 12 32 11 36 -1 3 8 46 19 95 32 145 39 215 38 428 -1 146 -3 206 -13 290 -4 37 -42 208 -66 295 -58 212 -193 502 -303 650 -10 14 -41 56 -69 94 -28 38 -82 102 -120 141 -37 40 -68 77 -68 84 0 6 -5 11 -11 11 -6 0 -45 31 -87 68 -251 222 -537 376 -857 462 -66 18 -127 35 -135 38 -8 3 -25 4 -37 3 -11 -1 -24 2 -27 7 -3 6 -15 8 -26 5 -11 -3 -28 -2 -37 2 -10 4 -30 7 -45 6 -15 -1 -33 1 -39 4 -6 4 -34 9 -62 11 -201 15 -225 15 -232 4z m309 -389 c9 -8 27 -10 50 -5 25 4 43 2 59 -9 13 -8 35 -12 53 -10 18 3 42 -1 55 -8 13 -7 32 -12 41 -10 10 1 28 -4 40 -11 13 -6 29 -11 37 -9 15 3 171 -49 238 -80 24 -10 45 -19 48 -19 27 0 275 -146 290 -170 3 -5 6 -338 5 -739 0 -508 3 -732 10 -736 10 -6 8 -61 -3 -71 -2 -3 -223 -6 -491 -7 -397 -2 -487 0 -491 11 -3 8 -5 100 -5 206 0 136 3 195 12 204 9 9 76 12 240 12 l228 0 0 399 0 399 -32 27 c-18 14 -41 33 -50 41 -43 34 -200 103 -271 119 -42 9 -79 20 -81 24 -2 3 -91 3 -198 0 -164 -5 -208 -10 -291 -32 -332 -88 -576 -317 -721 -677 -30 -73 -76 -246 -76 -284 0 -13 -5 -37 -11 -53 -12 -30 -17 -532 -5 -551 3 -5 10 -41 16 -78 5 -38 18 -104 30 -148 11 -43 18 -82 15 -86 -3 -4 1 -13 9 -19 8 -7 17 -24 21 -39 14 -55 104 -229 160 -307 105 -148 244 -270 382 -335 37 -18 76 -37 85 -41 10 -5 24 -9 32 -9 7 0 19 -6 25 -14 7 -8 20 -12 30 -9 11 3 29 -1 41 -7 13 -7 42 -13 66 -15 23 -1 47 -6 54 -10 18 -11 332 -8 363 4 16 6 36 11 44 11 24 0 90 21 163 53 100 43 143 66 223 119 48 32 95 58 105 58 11 0 28 -22 48 -62 17 -35 61 -123 99 -196 37 -72 65 -139 61 -147 -8 -23 -134 -112 -216 -153 -41 -20 -77 -39 -80 -42 -10 -10 -106 -42 -190 -65 -133 -35 -223 -48 -289 -42 -34 3 -64 1 -67 -4 -6 -11 -97 -12 -108 -2 -4 4 -41 6 -82 4 -132 -5 -482 68 -543 113 -7 6 -19 11 -25 11 -27 2 -147 59 -216 104 -104 66 -125 81 -175 123 -103 88 -146 132 -218 221 -120 147 -197 281 -276 480 -30 75 -72 224 -76 266 -1 22 -6 45 -10 52 -5 7 -9 33 -9 58 -1 25 -5 52 -9 58 -5 7 -9 44 -11 83 -1 38 -5 73 -9 76 -9 9 -9 379 0 388 4 3 8 43 10 87 1 44 6 85 9 91 4 5 8 31 10 56 2 25 8 50 13 55 5 5 7 15 5 22 -3 7 4 50 16 96 12 46 24 96 27 112 3 15 9 30 14 33 5 3 9 13 9 23 0 10 7 24 15 31 8 7 12 17 9 22 -4 5 -2 20 4 31 5 12 26 56 45 98 35 75 136 246 160 271 7 7 19 22 27 34 8 12 44 53 80 93 168 186 415 336 660 400 25 7 50 11 55 10 6 -2 21 3 34 10 14 8 36 10 57 6 22 -4 41 -1 53 7 26 18 523 17 545 -1z"/>
 <path d="M2513 3 c4 -3 10 -3 14 0 3 4 0 7 -7 7 -7 0 -10 -3 -7 -7z"/>
 </g>

</svg>