<svg height="512" viewBox="0 0 64 64" width="512" xmlns="http://www.w3.org/2000/svg"><g id="online-smartphone-shopping-3" data-name="online-smartphone-shopping"><path d="m8 9h26v26h-26z" fill="#ff7956"/><path d="m60 42h-16v-11h13z" fill="#ebe5dd"/><path d="m44 31v11h-16l3-11z" fill="#d9ccbc"/><path d="m28 42h32v19h-32z" fill="#c0ab91"/><path d="m50 53h6v4h-6z" fill="#ffda44"/><path d="m49 42v7l-3-2-2 2-2-2-3 2v-7h5z" fill="#ffda44"/><path d="m41 56h6v2h-6z" fill="#d9ccbc"/><path d="m27 42h4a0 0 0 0 1 0 0v17a2 2 0 0 1 -2 2h-2a0 0 0 0 1 0 0v-19a0 0 0 0 1 0 0z" fill="#787680"/><path d="m46 18v13h-2-2v-13z" fill="#ffda44"/><path d="m42 12h4v6h-4z" fill="#ffda44"/><path d="m50 10a2.006 2.006 0 0 1 -2 2h-8a2.006 2.006 0 0 1 -2-2v-1a2.006 2.006 0 0 1 2-2h.39a1.965 1.965 0 0 1 1.11.34l1.39.92a1.994 1.994 0 0 0 2.22 0l1.39-.92a1.965 1.965 0 0 1 1.11-.34h.39a2.006 2.006 0 0 1 2 2z" fill="#ea348b"/><path d="m46 12h10v6h-10z" fill="#64c37d"/><path d="m32 12h10v6h-10z" fill="#64c37d"/><path d="m46 18h8v13h-8z" fill="#91dc5a"/><path d="m34 18h8v13h-8z" fill="#91dc5a"/><path d="m4 26h26v25h-26z" fill="#bddbff"/><path d="m29 26h-25v25a25 25 0 0 1 25-25z" fill="#d7e9ff"/><path d="m30 51v8a2.006 2.006 0 0 1 -2 2h-22a2.006 2.006 0 0 1 -2-2v-8z" fill="#2488ff"/><path d="m8 22h20a2.006 2.006 0 0 1 2 2v2h-26v-2a2.006 2.006 0 0 1 2-2z" fill="#2488ff"/><path d="m8 22h-2a2.006 2.006 0 0 0 -2 2v2a4.012 4.012 0 0 1 4-4z" fill="#50a0ff"/><circle cx="17" cy="56" fill="#ffda44" r="2"/><path d="m26 37-1 10h-16l-1-10z" fill="#00d7df"/><path d="m18 31v-2h-2v2h-2l3 4 3-4z" fill="#ff3051"/><path d="m29 12.278v-7.278a3 3 0 0 0 -3-3h-10a3 3 0 0 0 -3 3v7.278a2 2 0 1 0 2 0v-7.278a1 1 0 0 1 1-1h10a1 1 0 0 1 1 1v7.278a2 2 0 1 0 2 0z" fill="#a0815c"/><path d="m26 37-1 10h-16l-1-10z" fill="#00ccb3"/><g fill="#009986"><path d="m11 40h2v4h-2z"/><path d="m14 40h2v4h-2z"/><path d="m18 40h2v4h-2z"/><path d="m21 40h2v4h-2z"/></g><path d="m13 39h-2v-5h-2v-2h3a1 1 0 0 1 1 1z" fill="#806749"/><path d="m23 39h-2v-6a1 1 0 0 1 1-1h3v2h-2z" fill="#806749"/><rect fill="#50a0ff" height="6" rx="1.5" width="3" x="5" y="52"/><rect fill="#83cf97" height="2" rx="1" width="5" x="33" y="13"/><path d="m34 18h8v1h-8z" fill="#32623f"/><path d="m46 18h8v1h-8z" fill="#32623f"/><path d="m42 18h4v1h-4z" fill="#bfa433"/><path d="m30 34.667v7.333h1v-11z" fill="#787680"/><rect fill="#ff9478" height="5" rx="1.5" width="3" x="10" y="17"/></g></svg>