<?xml version="1.0"?>
<svg xmlns="http://www.w3.org/2000/svg" viewBox="0 0 64 64" width="512" height="512"><g id="calander-gift_box-party-celebration" data-name="calander-gift box-party-celebration"><rect x="3" y="17" width="58" height="44" style="fill:#ebe5dd"/><path d="M40,35V48a2.006,2.006,0,0,0,2,2H56a2.006,2.006,0,0,0,2-2V35Z" style="fill:#ffda44"/><rect x="3" y="7" width="58" height="10" style="fill:#c0ab91"/><rect x="21" y="10" width="22" height="4" style="fill:#64c37d"/><rect x="9" y="3" width="6" height="8" rx="1" style="fill:#57565c"/><rect x="49" y="3" width="6" height="8" rx="1" style="fill:#57565c"/><rect x="6" y="43" width="30" height="18" style="fill:#00d7df"/><rect x="31" y="54" width="30" height="7" style="fill:#2488ff"/><rect x="31" y="50" width="30" height="4" style="fill:#004fac"/><path d="M58,29H40a2.006,2.006,0,0,0-2,2v4H60V31A2.006,2.006,0,0,0,58,29Z" style="fill:#ff9811"/><rect x="47" y="29" width="4" height="6" style="fill:#bd0022"/><path d="M53,27.5A1.5,1.5,0,0,1,51.5,29h-5a1.5,1.5,0,0,1,0-3H48l1,1,1-1h1.5A1.5,1.5,0,0,1,53,27.5Z" style="fill:#ea348b"/><rect x="21" y="10" width="22" height="2" style="fill:#86d09a"/><path d="M30,36v1H12V36a3,3,0,0,1,3-3h2.17a2.006,2.006,0,0,1,1.42.59L21,36l2.41-2.41A2.006,2.006,0,0,1,24.83,33H27a2.993,2.993,0,0,1,2.12.88,2.3,2.3,0,0,1,.32.38A2.985,2.985,0,0,1,30,36Z" style="fill:#ea348b"/><rect x="4" y="37" width="33" height="6" rx="1" style="fill:#009698"/><rect x="6" y="43" width="30" height="2" style="fill:#00bcc3"/><rect x="17" y="37" width="8" height="6" style="fill:#57a4ff"/><rect x="18" y="43" width="6" height="18" style="fill:#2488ff"/><polygon points="48 50 48 54 44 54 44 50 47 50 48 50" style="fill:#ff6243"/><rect x="31" y="54" width="30" height="1" style="fill:#2077df"/><rect x="44" y="54" width="4" height="7" style="fill:#ff856d"/><rect x="40" y="35" width="18" height="2" style="fill:#dfbf3c"/><rect x="47" y="35" width="4" height="15" style="fill:#e13957"/><rect x="3" y="17" width="58" height="4" style="fill:#d1d3d4"/><rect x="5" y="38" width="4" height="2" rx="1" style="fill:#39adaf"/><rect x="32" y="51" width="4" height="2" rx="1" style="fill:#005ece"/><rect x="40" y="30" width="4" height="3" rx="1.5" style="fill:#ffaf46"/><rect x="10" y="4" width="4" height="2" rx="1" style="fill:#6a696e"/><rect x="50" y="4" width="4" height="2" rx="1" style="fill:#6a696e"/><rect x="18" y="43" width="6" height="2" style="fill:#006df0"/><rect x="44" y="54" width="4" height="1" style="fill:#df745f"/><rect x="47" y="35" width="4" height="2" style="fill:#a92b41"/><path d="M14,37V36a1,1,0,0,1,1-1h2a1,1,0,0,1,1,1v1C18,37.552,14,37.552,14,37Z" style="fill:#ef61a5"/><path d="M24,37V36a1,1,0,0,1,1-1h2a1,1,0,0,1,1,1v1C28,37.552,24,37.552,24,37Z" style="fill:#ef61a5"/></g></svg>
