<svg height="482pt" viewBox="0 -64 482.20084 482" width="482pt" xmlns="http://www.w3.org/2000/svg"><path d="m482.199219 94.878906v118.972656c0 20.832032-16.894531 37.722657-37.726563 37.71875h-259.660156c.148438-1.628906.25-3.308593.25-5.101562-.0625-3.746094-.40625-7.480469-1.023438-11.179688l-.226562-1.589843 24.949219-17.75c1.195312-.886719 1.554687-2.523438.839843-3.828125l-23.109374-38.878906c-.910157-1.511719-1.980469-1.910157-3.191407-1.183594l-.261719.132812-27.6875 12.75-1.261718-.949218c-5.988282-4.527344-12.511719-8.304688-19.417969-11.242188l-1.449219-.628906-2.75-30.289063c-.21875-1.332031-1.300781-2.351562-2.640625-2.480469h-22.851562v-44.472656zm-38.6875 83.179688c.003906-12.742188-6.957031-24.472656-18.148438-30.574219-11.191406-6.097656-24.824219-5.59375-35.53125 1.316406-14.5625-9.382812-33.8125-6.632812-45.160156 6.453125-11.351563 13.089844-11.351563 32.53125 0 45.621094 11.347656 13.089844 30.597656 15.839844 45.160156 6.457031 10.710938 6.902344 24.339844 7.398438 35.527344 1.300781 11.191406-6.101562 18.152344-17.828124 18.152344-30.574218zm0 0" fill="#f8ec7d"/><path d="m104.980469 52.019531h377.21875v42.859375h-377.21875zm0 0" fill="#e48e66"/><path d="m482.199219 37.820312v14.199219h-377.21875v-14.199219c.003906-20.835937 16.894531-37.7226558 37.730469-37.71875h301.761718c20.832032-.0039058 37.726563 16.882813 37.726563 37.71875zm0 0" fill="#f8ec7d"/><path d="m408.691406 143.242188c14.84375 0 28.058594 9.410156 32.910156 23.441406 4.847657 14.03125.269532 29.597656-11.40625 38.765625-11.679687 9.167969-27.882812 9.921875-40.363281 1.882812 9.945313-6.410156 15.957031-17.433593 15.957031-29.265625 0-11.835937-6.011718-22.859375-15.957031-29.265625 5.613281-3.640625 12.167969-5.574219 18.859375-5.558593zm0 0" fill="#cc7350"/><path d="m389.832031 148.800781c14.539063 9.382813 19.980469 28.023438 12.769531 43.753907-7.214843 15.730468-24.886718 23.773437-41.484374 18.882812-16.601563-4.894531-27.082032-21.238281-24.609376-38.367188 2.476563-17.128906 17.15625-29.835937 34.464844-29.828124 6.6875 0 13.238282 1.929687 18.859375 5.558593zm0 0" fill="#e48e66"/><path d="m104.980469 139.351562h22.851562c1.339844.128907 2.421875 1.148438 2.640625 2.480469l2.75 30.289063 1.449219.628906c6.90625 2.9375 13.429687 6.714844 19.417969 11.242188l1.261718.949218 27.6875-12.75.261719-.132812c1.210938-.726563 2.28125-.328125 3.191407 1.183594l23.109374 38.878906c.714844 1.304687.355469 2.941406-.839843 3.828125l-24.949219 17.75.226562 1.589843c.617188 3.699219.960938 7.433594 1.023438 11.179688 0 1.792969-.101562 3.472656-.25 5.101562-.191406 2.050782-.480469 4.03125-.773438 6.082032l-.21875 1.546875 23.320313 17.761719c1.234375.894531 1.605469 2.566406.871094 3.898437l-22.671875 39.019531c-.808594.988282-2.160156 1.34375-3.347656.882813l-27.761719-12.78125-1.28125 1.050781c-5.890625 4.605469-12.394531 8.367188-19.328125 11.167969l-1.449219.621093-2.78125 30.710938c0 1.027344-1.320313 2.070312-2.609375 2.070312h-45.171875c-1.335937-.132812-2.414063-1.144531-2.628906-2.472656l-2.75-30.308594-1.449219-.621093c-6.910156-2.9375-13.429688-6.710938-19.421875-11.238281l-1.257813-.941407-27.699218 12.742188-.25.128906c-.460938.351563-1.0625.457031-1.613282.28125-.671874-.285156-1.226562-.792969-1.566406-1.441406l-22.601562-38.898438c-.710938-1.289062-.37500025-2.902343.789062-3.800781l24.691406-16.8125 1.359376-.976562-.230469-1.640626c-.617188-3.679687-.957031-7.402343-1.019531-11.132812.0625-3.746094.40625-7.480469 1.019531-11.179688l.230469-1.589843-24.898438-17.707031c-1.238281-.894532-1.613281-2.570313-.871094-3.902344l22.660156-39.019532c.804688-.992187 2.160157-1.347656 3.347657-.878906l27.773437 12.777344 1.277344-1.046875c5.890625-4.613281 12.394531-8.371094 19.332031-11.171875l1.449219-.628906 2.78125-30.691406c0-1.027344 1.308594-2.078126 2.597656-2.078126zm43.800781 107.117188c0-24.183594-19.605469-43.789062-43.789062-43.789062-24.1875 0-43.792969 19.605468-43.792969 43.789062 0 24.1875 19.605469 43.792969 43.792969 43.792969 11.652343.125 22.863281-4.449219 31.101562-12.6875 8.242188-8.238281 12.8125-19.453125 12.6875-31.105469zm0 0" fill="#6fe3ff"/></svg>