<?xml version="1.0" encoding="utf-8"?>
<!-- Generator: Adobe Illustrator 16.0.0, SVG Export Plug-In . SVG Version: 6.00 Build 0)  -->
<!DOCTYPE svg PUBLIC "-//W3C//DTD SVG 1.1//EN" "http://www.w3.org/Graphics/SVG/1.1/DTD/svg11.dtd">
<svg version="1.1" id="图层_1" xmlns="http://www.w3.org/2000/svg" xmlns:xlink="http://www.w3.org/1999/xlink" x="0px" y="0px"
	 width="1417.32px" height="562px" viewBox="0 455.16 1417.32 562" enable-background="new 0 455.16 1417.32 562"
	 xml:space="preserve">
<g enable-background="new    ">
	<path d="M121.717,799.778l40.551-3.641c1.918,16.69,6.388,30.381,13.406,41.076c7.015,10.696,17.911,19.344,32.684,25.943
		c14.77,6.6,31.389,9.899,49.857,9.899c16.397,0,30.874-2.503,43.431-7.51c12.554-5.007,21.899-11.869,28.031-20.596
		c6.128-8.722,9.196-18.241,9.196-28.56c0-10.469-2.957-19.607-8.864-27.423c-5.91-7.812-15.66-14.372-29.249-19.685
		c-8.718-3.488-27.996-8.911-57.834-16.271c-29.841-7.357-50.743-14.298-62.709-20.823c-15.511-8.342-27.072-18.696-34.678-31.063
		c-7.61-12.363-11.412-26.206-11.412-41.532c0-16.84,4.653-32.578,13.96-47.221c9.307-14.639,22.896-25.751,40.772-33.339
		c17.872-7.584,37.742-11.378,59.606-11.378c24.077,0,45.315,3.982,63.707,11.948c18.392,7.965,32.535,19.685,42.434,35.16
		c9.896,15.475,15.213,32.998,15.955,52.569l-41.215,3.186c-2.216-21.086-9.715-37.016-22.491-47.79
		c-12.779-10.771-31.652-16.157-56.615-16.157c-26.002,0-44.947,4.893-56.837,14.678c-11.893,9.786-17.838,21.583-17.838,35.387
		c0,11.987,4.21,21.847,12.63,29.584c8.271,7.737,29.876,15.667,64.814,23.781c34.935,8.118,58.904,15.212,71.905,21.278
		c18.907,8.954,32.868,20.293,41.88,34.022c9.009,13.732,13.517,29.549,13.517,47.448c0,17.751-4.951,34.478-14.846,50.18
		c-9.899,15.702-24.118,27.917-42.655,36.639c-18.541,8.723-39.408,13.086-62.599,13.086c-29.398,0-54.032-4.402-73.899-13.199
		c-19.87-8.797-35.454-22.035-46.755-39.711C128.254,842.071,122.306,822.08,121.717,799.778z"/>
	<path d="M433.933,906.965v-333.62h39.886v119.703c18.613-22.149,42.102-33.226,70.464-33.226c17.429,0,32.573,3.527,45.425,10.582
		s22.048,16.805,27.588,29.243c5.54,12.442,8.309,30.495,8.309,54.162v153.156H585.72V753.809c0-20.481-4.321-35.387-12.963-44.717
		s-20.867-13.996-36.673-13.996c-11.82,0-22.934,3.15-33.349,9.444c-10.415,6.297-17.838,14.832-22.27,25.602
		c-4.432,10.774-6.647,25.641-6.647,44.604v132.219H433.933z"/>
	<path d="M839.88,877.153c-14.773,12.896-28.993,21.999-42.655,27.309c-13.666,5.309-28.328,7.965-43.985,7.965
		c-25.853,0-45.723-6.486-59.606-19.458c-13.887-12.971-20.829-29.545-20.829-49.724c0-11.834,2.621-22.644,7.866-32.43
		c5.242-9.785,12.111-17.637,20.607-23.554c8.493-5.917,18.06-10.39,28.695-13.427c7.828-2.122,19.646-4.171,35.454-6.145
		c32.203-3.943,55.913-8.647,71.13-14.109c0.145-5.61,0.221-9.177,0.221-10.695c0-16.688-3.767-28.446-11.301-35.274
		c-10.192-9.252-25.337-13.882-45.425-13.882c-18.763,0-32.611,3.378-41.548,10.127c-8.939,6.752-15.549,18.7-19.832,35.842
		l-38.999-5.461c3.545-17.143,9.379-30.986,17.505-41.532c8.123-10.543,19.867-18.661,35.232-24.35
		c15.362-5.689,33.162-8.534,53.402-8.534c20.089,0,36.413,2.429,48.971,7.282c12.555,4.857,21.788,10.963,27.698,18.32
		c5.907,7.36,10.045,16.652,12.409,27.877c1.33,6.98,1.994,19.571,1.994,37.777v54.617c0,38.083,0.849,62.166,2.549,72.254
		c1.696,10.092,5.058,19.764,10.082,29.016h-41.658C843.72,898.47,841.061,888.531,839.88,877.153z M836.557,785.669
		c-14.479,6.07-36.195,11.229-65.146,15.475c-16.397,2.429-27.996,5.16-34.789,8.193c-6.797,3.036-12.042,7.474-15.733,13.313
		c-3.694,5.842-5.539,12.328-5.539,19.457c0,10.924,4.022,20.026,12.076,27.309c8.05,7.283,19.832,10.924,35.343,10.924
		c15.362,0,29.028-3.449,40.994-10.354c11.965-6.901,20.753-16.346,26.368-28.333c4.283-9.252,6.427-22.906,6.427-40.963V785.669z"
		/>
	<path d="M938.264,906.965V665.284h35.897v36.639c9.157-17.143,17.616-28.447,25.371-33.908c7.756-5.462,16.287-8.193,25.594-8.193
		c13.44,0,27.106,4.402,40.993,13.199l-13.738,38.004c-9.75-5.917-19.499-8.875-29.249-8.875c-8.718,0-16.547,2.695-23.488,8.079
		c-6.945,5.387-11.893,12.857-14.847,22.415c-4.432,14.564-6.647,30.495-6.647,47.79v126.53H938.264z"/>
	<path d="M1250.923,829.136l41.215,5.233c-6.502,24.73-18.54,43.922-36.118,57.576c-17.582,13.654-40.035,20.481-67.362,20.481
		c-34.423,0-61.712-10.885-81.877-32.657c-20.164-21.769-30.246-52.302-30.246-91.598c0-40.656,10.192-72.215,30.579-94.669
		c20.386-22.451,46.827-33.681,79.328-33.681c31.465,0,57.169,11.002,77.111,32.998c19.943,22,29.915,52.95,29.915,92.849
		c0,2.429-0.076,6.07-0.222,10.924h-175.497c1.475,26.551,8.787,46.88,21.938,60.989c13.146,14.109,29.543,21.164,49.192,21.164
		c14.624,0,27.105-3.943,37.447-11.834C1236.665,859.025,1244.863,846.431,1250.923,829.136z M1119.965,762.912h131.401
		c-1.773-20.329-6.797-35.576-15.068-45.742c-12.706-15.777-29.177-23.667-49.414-23.667c-18.318,0-33.719,6.297-46.2,18.888
		C1128.198,724.985,1121.295,741.826,1119.965,762.912z"/>
</g>
<path fill="none" stroke="#000000" stroke-width="40" stroke-miterlimit="10" d="M1390.396,976.952
	c0,9.664-7.546,17.499-16.852,17.499H45.013c-9.308,0-16.853-7.835-16.853-17.499V498.659c0-9.664,7.545-17.499,16.853-17.499
	h1328.531c9.306,0,16.852,7.835,16.852,17.499V976.952z"/>
</svg>
