<?xml version="1.0" encoding="utf-8"?>
<!-- Generator: Adobe Illustrator 16.0.0, SVG Export Plug-In . SVG Version: 6.00 Build 0)  -->
<!DOCTYPE svg PUBLIC "-//W3C//DTD SVG 1.1//EN" "http://www.w3.org/Graphics/SVG/1.1/DTD/svg11.dtd">
<svg version="1.1" id="图层_1" xmlns="http://www.w3.org/2000/svg" xmlns:xlink="http://www.w3.org/1999/xlink" x="0px" y="0px"
	 width="1398.918px" height="456px" viewBox="0 6.167 1398.918 456" enable-background="new 0 6.167 1398.918 456"
	 xml:space="preserve">
<g enable-background="new    ">
	<path d="M92.761,273.115l23.939-2.149c1.132,9.851,3.772,17.935,7.915,24.249c4.141,6.314,10.573,11.421,19.295,15.316
		c8.72,3.896,18.531,5.845,29.434,5.845c9.681,0,18.226-1.479,25.64-4.435c7.411-2.956,12.929-7.007,16.548-12.159
		c3.618-5.149,5.429-10.769,5.429-16.861c0-6.179-1.746-11.575-5.233-16.189c-3.489-4.611-9.245-8.483-17.268-11.62
		c-5.146-2.06-16.527-5.261-34.143-9.607c-17.617-4.343-29.956-8.44-37.021-12.292c-9.157-4.925-15.982-11.037-20.472-18.337
		c-4.493-7.3-6.737-15.471-6.737-24.519c0-9.943,2.748-19.233,8.241-27.878c5.494-8.643,13.518-15.201,24.071-19.681
		c10.551-4.479,22.282-6.717,35.189-6.717c14.214,0,26.752,2.35,37.61,7.053c10.857,4.701,19.207,11.621,25.051,20.756
		c5.842,9.137,8.981,19.481,9.418,31.035l-24.332,1.882c-1.309-12.449-5.735-21.854-13.278-28.213
		c-7.544-6.358-18.686-9.539-33.423-9.539c-15.351,0-26.535,2.888-33.554,8.665c-7.021,5.777-10.531,12.743-10.531,20.892
		c0,7.076,2.485,12.896,7.456,17.465c4.884,4.568,17.638,9.25,38.264,14.039c20.624,4.793,34.774,8.983,42.449,12.562
		c11.163,5.284,19.404,11.979,24.724,20.086c5.319,8.106,7.98,17.444,7.98,28.012c0,10.479-2.923,20.354-8.764,29.623
		c-5.844,9.271-14.239,16.481-25.182,21.631c-10.946,5.149-23.265,7.726-36.956,7.726c-17.355,0-31.898-2.6-43.626-7.792
		c-11.73-5.193-20.93-13.009-27.602-23.444C96.62,298.082,93.108,286.28,92.761,273.115z"/>
	<path d="M277.08,336.393V139.437h23.546v70.669c10.988-13.078,24.854-19.615,41.599-19.615c10.29,0,19.23,2.083,26.817,6.247
		c7.587,4.165,13.016,9.922,16.286,17.265s4.905,18.002,4.905,31.974v90.416h-23.546v-90.418c0-12.092-2.551-20.892-7.653-26.398
		c-5.102-5.508-12.319-8.263-21.65-8.263c-6.978,0-13.54,1.859-19.688,5.574c-6.149,3.72-10.531,8.757-13.147,15.116
		c-2.616,6.359-3.924,15.139-3.924,26.332v78.056H277.08V336.393z"/>
	<path d="M516.734,318.792c-8.722,7.613-17.117,12.989-25.182,16.123c-8.068,3.132-16.724,4.701-25.967,4.701
		c-15.262,0-26.994-3.829-35.189-11.486c-8.198-7.659-12.295-17.443-12.295-29.356c0-6.985,1.547-13.367,4.643-19.145
		c3.095-5.776,7.149-10.412,12.167-13.903c5.012-3.494,10.661-6.136,16.94-7.928c4.623-1.254,11.598-2.462,20.931-3.627
		c19.011-2.328,33.008-5.105,41.992-8.329c0.087-3.314,0.132-5.42,0.132-6.314c0-9.852-2.225-16.794-6.672-20.825
		c-6.018-5.461-14.958-8.196-26.817-8.196c-11.077,0-19.253,1.997-24.527,5.98c-5.278,3.985-9.18,11.039-11.708,21.16l-23.024-3.225
		c2.093-10.12,5.537-18.292,10.334-24.52c4.796-6.223,11.729-11.014,20.8-14.375c9.069-3.358,19.577-5.038,31.527-5.038
		c11.86,0,21.497,1.434,28.911,4.299c7.412,2.869,12.863,6.472,16.352,10.815c3.487,4.344,5.93,9.831,7.326,16.458
		c0.786,4.121,1.178,11.554,1.178,22.301v32.246c0,22.481,0.5,36.699,1.505,42.655c1.001,5.958,2.986,11.667,5.952,17.128h-24.594
		C519,331.376,517.431,325.511,516.734,318.792z M514.771,264.785c-8.548,3.583-21.367,6.629-38.459,9.136
		c-9.681,1.435-16.528,3.046-20.538,4.836c-4.013,1.793-7.11,4.413-9.289,7.861c-2.181,3.449-3.27,7.277-3.27,11.486
		c0,6.448,2.374,11.823,7.129,16.122c4.752,4.299,11.708,6.448,20.865,6.448c9.069,0,17.138-2.037,24.201-6.114
		c7.064-4.073,12.252-9.648,15.567-16.725c2.529-5.464,3.793-13.524,3.793-24.184V264.785z"/>
	<path d="M574.816,336.393V193.715h21.191v21.63c5.407-10.121,10.4-16.794,14.979-20.018c4.58-3.224,9.616-4.837,15.109-4.837
		c7.936,0,16.003,2.6,24.201,7.792l-8.111,22.436c-5.756-3.493-11.511-5.239-17.268-5.239c-5.146,0-9.768,1.592-13.866,4.77
		c-4.101,3.18-7.021,7.591-8.765,13.233c-2.616,8.599-3.924,18.003-3.924,28.215v74.696H574.816L574.816,336.393z"/>
	<path d="M759.396,290.445l24.332,3.09c-3.839,14.601-10.946,25.93-21.323,33.99c-10.379,8.061-23.635,12.092-39.769,12.092
		c-20.32,0-36.432-6.425-48.335-19.278c-11.905-12.853-17.857-30.877-17.857-54.076c0-24.001,6.018-42.633,18.053-55.89
		c12.035-13.253,27.645-19.884,46.833-19.884c18.574,0,33.75,6.496,45.524,19.481c11.771,12.988,17.658,31.259,17.658,54.815
		c0,1.434-0.044,3.583-0.131,6.447H680.776c0.872,15.676,5.189,27.677,12.951,36.006c7.76,8.33,17.44,12.495,29.041,12.495
		c8.634,0,16.003-2.328,22.108-6.986C750.979,308.091,755.819,300.657,759.396,290.445z M682.084,251.351h77.575
		c-1.046-12.003-4.013-21.003-8.896-27.006c-7.501-9.313-17.227-13.973-29.173-13.973c-10.814,0-19.906,3.718-27.275,11.151
		C686.944,228.96,682.869,238.901,682.084,251.351z"/>
</g>
<g>
	<g>
		<path fill="none" stroke="#000000" stroke-width="30" stroke-miterlimit="10" d="M924.907,402.036
			c6.124,5.149,7.425,8.741,2.033,8.755c-298.841-0.073-597.687-0.146-896.53-0.217c-5.377,0.004-9.707-6.008-9.671-13.422
			c0.347-107.754,0.347-215.572,0-323.323c-0.036-7.418,4.293-13.423,9.671-13.42c298.843-0.073,597.688-0.145,896.53-0.217
			c5.392,0.013,4.092,3.603-2.033,8.752c-44.02,37.185-59.644,101.701-60.173,166.545
			C865.265,300.339,880.887,364.851,924.907,402.036z"/>
	</g>
</g>
<circle fill="none" stroke="#A7A9AC" stroke-width="30" stroke-miterlimit="10" cx="1170.336" cy="234.435" r="207.897"/>
<g enable-background="new    ">
	<path fill="#A7A9AC" d="M1177.367,266.467v-32.732l118.172-0.19v103.519c-18.143,14.46-36.854,25.341-56.136,32.636
		c-19.284,7.292-39.075,10.94-59.371,10.94c-27.401,0-52.301-5.866-74.689-17.602c-22.392-11.733-39.296-28.702-50.712-50.903
		c-11.417-22.2-17.127-47.002-17.127-74.402c0-27.148,5.677-52.488,17.03-76.023c11.355-23.531,27.69-41.008,49.001-52.424
		c21.313-11.417,45.861-17.125,73.643-17.125c20.172,0,38.406,3.267,54.709,9.799c16.301,6.536,29.082,15.636,38.344,27.307
		c9.259,11.672,16.3,26.896,21.122,45.67l-33.301,9.136c-4.187-14.208-9.39-25.373-15.604-33.493
		c-6.216-8.116-15.099-14.62-26.641-19.504c-11.544-4.882-24.356-7.326-38.438-7.326c-16.873,0-31.462,2.569-43.767,7.707
		c-12.307,5.138-22.234,11.894-29.78,20.267c-7.55,8.372-13.414,17.572-17.603,27.592c-7.106,17.252-10.656,35.964-10.656,56.134
		c0,24.867,4.282,45.672,12.845,62.417s21.028,29.18,37.393,37.297c16.364,8.12,33.743,12.179,52.139,12.179
		c15.985,0,31.589-3.076,46.813-9.23c15.224-6.149,26.765-12.717,34.632-19.694v-51.948h-82.016V266.467z"/>
</g>
</svg>
